<svg xmlns="http://www.w3.org/2000/svg"  viewBox="0 0 64 64" width="48px" height="48px" baseProfile="basic"><path fill="#060000" d="M32,10c12.131,0,22,9.869,22,22s-9.869,22-22,22s-22-9.869-22-22S19.869,10,32,10z M26.5,41.416	c5.238,0,9.5-4.224,9.5-9.416c0-1.104-0.896-2-2-2h-6.844c-1.104,0-2,0.896-2,2s0.896,2,2,2h4.455	c-0.81,1.999-2.796,3.416-5.111,3.416c-3.032,0-5.5-2.429-5.5-5.416s2.468-5.416,5.5-5.416c1.174,0,2.293,0.359,3.238,1.039	c0.898,0.647,2.147,0.44,2.791-0.456c0.646-0.896,0.441-2.146-0.455-2.792c-1.63-1.172-3.557-1.792-5.574-1.792	c-5.238,0-9.5,4.224-9.5,9.416S21.262,41.416,26.5,41.416z M45.5,34c1.104,0,2-0.896,2-2s-0.896-2-2-2h-0.949v-1.45	c0-1.104-0.896-2-2-2s-2,0.896-2,2V30H39.5c-1.104,0-2,0.896-2,2s0.896,2,2,2h1.051v1.45c0,1.104,0.896,2,2,2s2-0.896,2-2V34H45.5z"/></svg>